HIERARCHY
ROOT Hips
{
 OFFSET 0.000000 0.000000 0.000000
 CHANNELS 6 Xposition Yposition Zposition Yrotation Xrotation Zrotation
 JOINT Chest
 {
  OFFSET 0.000000 9.585900 0.002600
  CHANNELS 3 Yrotation Xrotation Zrotation
  JOINT Chest2
  {
   OFFSET 0.000000 9.601200 -0.005300
   CHANNELS 3 Yrotation Xrotation Zrotation
   JOINT Chest3
   {
    OFFSET 0.000000 9.561800 0.000000
    CHANNELS 3 Yrotation Xrotation Zrotation
    JOINT Chest4
    {
     OFFSET 0.000000 9.552100 0.000000
     CHANNELS 3 Yrotation Xrotation Zrotation
     JOINT Neck
     {
      OFFSET 0.000000 14.453000 0.000000
      CHANNELS 3 Yrotation Xrotation Zrotation
      JOINT Head
      {
       OFFSET 0.000000 8.936500 -0.011300
       CHANNELS 3 Yrotation Xrotation Zrotation
       End Site
       {
        OFFSET 0.000000 17.073600 -0.006000
       }
      }
     }
     JOINT RightCollar
     {
      OFFSET -2.921100 9.558500 0.000000
      CHANNELS 3 Yrotation Xrotation Zrotation
      JOINT RightShoulder
      {
       OFFSET -13.519700 0.000000 0.000000
       CHANNELS 3 Yrotation Xrotation Zrotation
       JOINT RightElbow
       {
        OFFSET 0.000000 -29.696600 0.000000
        CHANNELS 3 Yrotation Xrotation Zrotation
        JOINT RightWrist
        {
         OFFSET 0.000000 -24.004700 0.000000
         CHANNELS 3 Yrotation Xrotation Zrotation
         End Site
         {
          OFFSET 0.000000 -17.728500 0.000000
         }
        }
       }
      }
     }
     JOINT LeftCollar
     {
      OFFSET 2.921100 9.558500 0.000000
      CHANNELS 3 Yrotation Xrotation Zrotation
      JOINT LeftShoulder
      {
       OFFSET 13.519700 0.000000 0.000000
       CHANNELS 3 Yrotation Xrotation Zrotation
       JOINT LeftElbow
       {
        OFFSET 0.000000 -29.696600 0.000000
        CHANNELS 3 Yrotation Xrotation Zrotation
        JOINT LeftWrist
        {
         OFFSET 0.000000 -24.004700 0.000000
         CHANNELS 3 Yrotation Xrotation Zrotation
         End Site
         {
          OFFSET 0.000000 -17.728500 0.000000
         }
        }
       }
      }
     }
    }
   }
  }
 }
 JOINT RightHip
 {
  OFFSET -7.771700 -0.012900 -0.001300
  CHANNELS 3 Yrotation Xrotation Zrotation
  JOINT RightKnee
  {
   OFFSET 0.000000 -40.869800 0.001200
   CHANNELS 3 Yrotation Xrotation Zrotation
   JOINT RightAnkle
   {
    OFFSET 0.000000 -39.717900 0.002100
    CHANNELS 3 Yrotation Xrotation Zrotation
    JOINT RightToe
    {
     OFFSET 0.000000 -4.965400 11.033500
     CHANNELS 3 Yrotation Xrotation Zrotation
     End Site
     {
      OFFSET 0.000000 -1.423100 5.872300
     }
    }
   }
  }
 }
 JOINT LeftHip
 {
  OFFSET 7.771700 -0.012900 -0.001300
  CHANNELS 3 Yrotation Xrotation Zrotation
  JOINT LeftKnee
  {
   OFFSET 0.000000 -40.869800 0.001200
   CHANNELS 3 Yrotation Xrotation Zrotation
   JOINT LeftAnkle
   {
    OFFSET 0.000000 -39.717900 0.002100
    CHANNELS 3 Yrotation Xrotation Zrotation
    JOINT LeftToe
    {
     OFFSET 0.000000 -4.965400 11.033500
     CHANNELS 3 Yrotation Xrotation Zrotation
     End Site
     {
      OFFSET 0.000000 -1.423100 5.872300
     }
    }
   }
  }
 }
}
MOTION
Frames: 5
Frame Time: 0.008333
-138.708541 51.805749 -60.067931 178.068531 -16.577289 -0.819746 -1.024120 11.663025 1.669038 -0.090501 0.832895 0.149143 -0.148496 1.417927 0.255607 -1.003136 10.680158 1.820580 -2.971133 17.432566 -1.130365 -2.871853 -7.325587 -0.529327 9.189725 13.182167 12.580042 54.451010 2.411715 -56.688993 133.360146 -64.664356 -155.836967 -0.166642 -6.261853 1.194064 -4.895065 14.523991 -16.296247 -29.019196 2.666609 30.245106 -98.766624 -67.019348 139.835409 11.682088 2.980203 9.747146 -11.259572 -65.062983 6.609298 -78.170284 83.657616 -86.480352 -5.137183 -6.446585 9.042947 0.085029 0.136914 -0.350991 12.343296 -64.240019 -9.967554 43.386439 86.006745 49.201720 -2.077972 -13.467214 0.994557 0.008274 0.265891 -0.014597
-138.710676 51.806410 -60.081809 178.131689 -16.601327 -0.806527 -1.085398 11.679332 1.638648 -0.090979 0.833203 0.149230 -0.144263 1.410160 0.256888 -1.019522 10.673131 1.822223 -2.969574 17.436813 -1.134607 -2.872198 -7.312131 -0.527538 9.174996 13.202028 12.581037 54.379128 2.348936 -56.614632 133.451429 -64.664393 -155.928963 -0.142974 -6.211273 1.104377 -4.890850 14.541968 -16.300639 -29.010875 2.671505 30.263155 -98.786204 -67.030265 139.826580 11.690847 2.974737 9.745124 -11.224926 -65.045557 6.518652 -78.935917 83.684076 -87.271763 -5.148919 -6.744711 9.190331 0.058062 0.219984 -0.357655 12.414617 -64.207292 -10.075452 43.350435 86.015092 49.171873 -2.088218 -13.452243 1.018198 0.002589 0.250742 -0.009827
-138.711185 51.807452 -60.100086 178.214198 -16.641546 -0.806251 -1.143984 11.685076 1.623054 -0.093000 0.833733 0.149270 -0.157789 1.427431 0.254897 -1.033632 10.658256 1.823654 -2.969292 17.446405 -1.141528 -2.876983 -7.296037 -0.528412 9.143882 13.221558 12.577368 54.319182 2.290892 -56.526551 133.521320 -64.622984 -155.941055 -0.139053 -6.135065 0.974815 -4.879926 14.548713 -16.299611 -28.995810 2.687125 30.266932 -98.826238 -67.054201 139.837681 11.698836 2.966380 9.741293 -11.162032 -65.015063 6.400406 -79.889984 83.696408 -88.225475 -5.186151 -7.075025 9.303007 0.054462 0.304599 -0.333339 12.470866 -64.158141 -10.171475 43.324197 86.027191 49.155755 -2.109853 -13.446530 1.048144 0.001864 0.241791 -0.004910
-138.710920 51.807616 -60.119745 178.290592 -16.681260 -0.807427 -1.196829 11.687648 1.610996 -0.069830 0.792726 0.153569 -0.186186 1.468594 0.251070 -1.055806 10.610127 1.821897 -2.971421 17.504118 -1.153525 -2.876952 -7.276245 -0.539191 9.109932 13.299117 12.586477 54.264907 2.241097 -56.441629 133.599871 -64.629700 -156.049874 -0.113418 -6.106681 0.946424 -4.846404 14.570900 -16.292765 -28.984311 2.731395 30.246830 -98.887029 -67.077004 139.868485 11.707864 2.968314 9.737787 -11.048990 -64.997467 6.276088 -81.055530 83.679013 -89.371153 -5.285318 -7.412842 9.381225 0.099480 0.377277 -0.273268 12.465475 -64.112902 -10.212139 43.469633 86.030159 49.286109 -2.119261 -13.448842 1.075374 -0.013758 0.238245 -0.004664
-138.714615 51.807017 -60.142117 178.380820 -16.729543 -0.787945 -1.246079 11.663648 1.580289 -0.091005 0.821570 0.149472 -0.190367 1.469194 0.251995 -1.076709 10.614410 1.816008 -2.970200 17.509556 -1.159699 -2.877804 -7.254797 -0.544007 9.081670 13.325168 12.589401 54.206398 2.200833 -56.349157 133.649918 -64.620107 -156.139146 -0.091885 -6.071664 0.929165 -4.827751 14.568745 -16.288849 -28.952031 2.749738 30.246626 -98.936390 -67.100427 139.895069 11.712772 2.972394 9.731816 -10.973764 -64.967959 6.140125 -82.146088 83.679432 -90.467572 -5.385201 -7.764214 9.448936 0.135540 0.433219 -0.218537 12.565309 -64.050984 -10.345814 43.409497 86.052292 49.224563 -2.158290 -13.466784 1.111094 -0.003493 0.249142 0.008928
